<?xml version="1.0" encoding="utf-8"?>
<!-- Generator: Adobe Illustrator 16.0.0, SVG Export Plug-In . SVG Version: 6.00 Build 0)  -->
<!DOCTYPE svg PUBLIC "-//W3C//DTD SVG 1.1//EN" "http://www.w3.org/Graphics/SVG/1.1/DTD/svg11.dtd">
<svg version="1.1" id="Layer_1" xmlns="http://www.w3.org/2000/svg" xmlns:xlink="http://www.w3.org/1999/xlink" x="0px" y="0px"
	 width="265.051px" height="154.312px" viewBox="302.449 241.844 265.051 154.312"
	 enable-background="new 302.449 241.844 265.051 154.312" xml:space="preserve">
<path fill="#895881" d="M302.449,319c21-84,162.666-109.667,194.104-25.004L567.5,249.5L553.115,319 M529,319h24.116l9.384,71.5
	l-65.946-46.496C465.115,428.666,323.449,403,302.449,319"/>
<g>
	<circle fill="#FFFFFF" cx="362.455" cy="310.675" r="32.333"/>
	<circle fill="#231F20" cx="359.121" cy="310.676" r="18.333"/>
</g>
<path fill="none" stroke="#574053" stroke-width="6" stroke-miterlimit="10" d="M413.906,341.939L461.5,365l-10.25-45.104
	L464.5,274.5l-50.594,21.562 M430.783,306l26.274-6 M430.486,331.5l25.104,7.492"/>
<path fill="#352733" d="M304.318,319.021c9.815,1.136,39.065,31.886,22.184,39.872C321.684,361.175,295.284,317.976,304.318,319.021
	z"/>
</svg>
