<?xml version="1.0" encoding="utf-8"?>
<!-- Generator: Adobe Illustrator 16.0.0, SVG Export Plug-In . SVG Version: 6.00 Build 0)  -->
<!DOCTYPE svg PUBLIC "-//W3C//DTD SVG 1.1//EN" "http://www.w3.org/Graphics/SVG/1.1/DTD/svg11.dtd">
<svg version="1.1" id="Layer_1" xmlns="http://www.w3.org/2000/svg" xmlns:xlink="http://www.w3.org/1999/xlink" x="0px" y="0px"
	 width="265.051px" height="154.312px" viewBox="0 0 265.051 154.312" enable-background="new 0 0 265.051 154.312"
	 xml:space="preserve">
<path fill="#895881" d="M0,77.156c21-84,162.666-109.667,194.104-25.004l70.947-44.496l-14.385,69.5 M226.551,77.156h24.116
	l9.384,71.5l-65.945-46.496C162.666,186.822,21,161.156,0,77.156"/>
<g>
	<circle fill="#FFFFFF" cx="60.006" cy="68.831" r="32.333"/>
	<circle fill="#231F20" cx="56.672" cy="68.832" r="18.333"/>
</g>
<path fill="none" stroke="#574053" stroke-width="6" stroke-miterlimit="10" d="M111.457,100.095l47.594,23.061l-10.25-45.104
	l13.25-45.396l-50.594,21.562 M128.334,64.156l26.273-6 M128.037,89.656l25.104,7.492"/>
<path fill="#352733" d="M1.869,77.177c9.814,1.137,39.064,31.887,22.184,39.871C19.234,119.331-7.165,76.132,1.869,77.177z"/>
</svg>
